ISO-10303-21;
HEADER;
/* Generated by software containing ST-Developer
 * from STEP Tools, Inc. (www.steptools.com) 
 */

FILE_DESCRIPTION(
/* description */ (''),
/* implementation_level */ '2;1');

FILE_NAME(
/* name */ 'Bottom.step',
/* time_stamp */ '2026-08-15T21:51:38+03:00',
/* author */ (''),
/* organization */ (''),
/* preprocessor_version */ 'ST-DEVELOPER v20.1',
/* originating_system */ 'Autodesk Translation Framework v15.8.0.0',
/* authorisation */ '');

FILE_SCHEMA (('AUTOMOTIVE_DESIGN { 1 0 10303 214 3 1 1 }'));
ENDSEC;

DATA;
#10=MECHANICAL_DESIGN_GEOMETRIC_PRESENTATION_REPRESENTATION('',(#13),#537);
#11=SHAPE_REPRESENTATION_RELATIONSHIP('SRR','None',#544,#12);
#12=ADVANCED_BREP_SHAPE_REPRESENTATION('',(#14),#536);
#13=STYLED_ITEM('',(#553),#14);
#14=MANIFOLD_SOLID_BREP('Body1',#325);
#15=CYLINDRICAL_SURFACE('',#352,1.45);
#16=CYLINDRICAL_SURFACE('',#353,1.45);
#17=CYLINDRICAL_SURFACE('',#354,1.45);
#18=CYLINDRICAL_SURFACE('',#355,1.45);
#19=FACE_BOUND('',#52,.T.);
#20=FACE_BOUND('',#53,.T.);
#21=FACE_BOUND('',#54,.T.);
#22=FACE_BOUND('',#55,.T.);
#23=FACE_BOUND('',#57,.T.);
#24=FACE_BOUND('',#58,.T.);
#25=FACE_BOUND('',#59,.T.);
#26=FACE_BOUND('',#60,.T.);
#27=CIRCLE('',#340,1.45);
#28=CIRCLE('',#341,1.45);
#29=CIRCLE('',#342,1.45);
#30=CIRCLE('',#343,1.45);
#31=CIRCLE('',#345,1.45);
#32=CIRCLE('',#346,1.45);
#33=CIRCLE('',#347,1.45);
#34=CIRCLE('',#348,1.45);
#35=FACE_OUTER_BOUND('',#51,.T.);
#36=FACE_OUTER_BOUND('',#56,.T.);
#37=FACE_OUTER_BOUND('',#61,.T.);
#38=FACE_OUTER_BOUND('',#62,.T.);
#39=FACE_OUTER_BOUND('',#63,.T.);
#40=FACE_OUTER_BOUND('',#64,.T.);
#41=FACE_OUTER_BOUND('',#65,.T.);
#42=FACE_OUTER_BOUND('',#66,.T.);
#43=FACE_OUTER_BOUND('',#67,.T.);
#44=FACE_OUTER_BOUND('',#68,.T.);
#45=FACE_OUTER_BOUND('',#69,.T.);
#46=FACE_OUTER_BOUND('',#70,.T.);
#47=FACE_OUTER_BOUND('',#71,.T.);
#48=FACE_OUTER_BOUND('',#72,.T.);
#49=FACE_OUTER_BOUND('',#73,.T.);
#50=FACE_OUTER_BOUND('',#74,.T.);
#51=EDGE_LOOP('',(#213,#214,#215,#216,#217,#218,#219,#220,#221,#222));
#52=EDGE_LOOP('',(#223));
#53=EDGE_LOOP('',(#224));
#54=EDGE_LOOP('',(#225));
#55=EDGE_LOOP('',(#226));
#56=EDGE_LOOP('',(#227,#228,#229,#230));
#57=EDGE_LOOP('',(#231));
#58=EDGE_LOOP('',(#232));
#59=EDGE_LOOP('',(#233));
#60=EDGE_LOOP('',(#234));
#61=EDGE_LOOP('',(#235,#236,#237,#238,#239,#240));
#62=EDGE_LOOP('',(#241,#242,#243,#244,#245,#246,#247,#248));
#63=EDGE_LOOP('',(#249,#250,#251,#252));
#64=EDGE_LOOP('',(#253,#254,#255,#256));
#65=EDGE_LOOP('',(#257,#258,#259,#260));
#66=EDGE_LOOP('',(#261,#262,#263,#264));
#67=EDGE_LOOP('',(#265,#266,#267,#268));
#68=EDGE_LOOP('',(#269,#270,#271,#272));
#69=EDGE_LOOP('',(#273,#274,#275,#276));
#70=EDGE_LOOP('',(#277,#278,#279,#280));
#71=EDGE_LOOP('',(#281,#282,#283,#284));
#72=EDGE_LOOP('',(#285,#286,#287,#288));
#73=EDGE_LOOP('',(#289,#290,#291,#292));
#74=EDGE_LOOP('',(#293,#294,#295,#296));
#75=LINE('',#451,#109);
#76=LINE('',#453,#110);
#77=LINE('',#455,#111);
#78=LINE('',#457,#112);
#79=LINE('',#459,#113);
#80=LINE('',#461,#114);
#81=LINE('',#463,#115);
#82=LINE('',#465,#116);
#83=LINE('',#467,#117);
#84=LINE('',#468,#118);
#85=LINE('',#480,#119);
#86=LINE('',#482,#120);
#87=LINE('',#484,#121);
#88=LINE('',#485,#122);
#89=LINE('',#497,#123);
#90=LINE('',#499,#124);
#91=LINE('',#501,#125);
#92=LINE('',#503,#126);
#93=LINE('',#505,#127);
#94=LINE('',#506,#128);
#95=LINE('',#508,#129);
#96=LINE('',#509,#130);
#97=LINE('',#510,#131);
#98=LINE('',#511,#132);
#99=LINE('',#513,#133);
#100=LINE('',#515,#134);
#101=LINE('',#517,#135);
#102=LINE('',#519,#136);
#103=LINE('',#521,#137);
#104=LINE('',#523,#138);
#105=LINE('',#525,#139);
#106=LINE('',#528,#140);
#107=LINE('',#530,#141);
#108=LINE('',#532,#142);
#109=VECTOR('',#367,10.);
#110=VECTOR('',#368,10.);
#111=VECTOR('',#369,10.);
#112=VECTOR('',#370,10.);
#113=VECTOR('',#371,10.);
#114=VECTOR('',#372,10.);
#115=VECTOR('',#373,10.);
#116=VECTOR('',#374,10.);
#117=VECTOR('',#375,10.);
#118=VECTOR('',#376,10.);
#119=VECTOR('',#387,10.);
#120=VECTOR('',#388,10.);
#121=VECTOR('',#389,10.);
#122=VECTOR('',#390,10.);
#123=VECTOR('',#401,10.);
#124=VECTOR('',#402,10.);
#125=VECTOR('',#403,10.);
#126=VECTOR('',#404,10.);
#127=VECTOR('',#405,10.);
#128=VECTOR('',#406,10.);
#129=VECTOR('',#409,10.);
#130=VECTOR('',#410,10.);
#131=VECTOR('',#411,10.);
#132=VECTOR('',#412,10.);
#133=VECTOR('',#415,10.);
#134=VECTOR('',#418,1.45);
#135=VECTOR('',#421,1.45);
#136=VECTOR('',#424,1.45);
#137=VECTOR('',#427,1.45);
#138=VECTOR('',#430,10.);
#139=VECTOR('',#433,10.);
#140=VECTOR('',#438,10.);
#141=VECTOR('',#441,10.);
#142=VECTOR('',#444,10.);
#143=VERTEX_POINT('',#449);
#144=VERTEX_POINT('',#450);
#145=VERTEX_POINT('',#452);
#146=VERTEX_POINT('',#454);
#147=VERTEX_POINT('',#456);
#148=VERTEX_POINT('',#458);
#149=VERTEX_POINT('',#460);
#150=VERTEX_POINT('',#462);
#151=VERTEX_POINT('',#464);
#152=VERTEX_POINT('',#466);
#153=VERTEX_POINT('',#469);
#154=VERTEX_POINT('',#471);
#155=VERTEX_POINT('',#473);
#156=VERTEX_POINT('',#475);
#157=VERTEX_POINT('',#478);
#158=VERTEX_POINT('',#479);
#159=VERTEX_POINT('',#481);
#160=VERTEX_POINT('',#483);
#161=VERTEX_POINT('',#486);
#162=VERTEX_POINT('',#488);
#163=VERTEX_POINT('',#490);
#164=VERTEX_POINT('',#492);
#165=VERTEX_POINT('',#495);
#166=VERTEX_POINT('',#496);
#167=VERTEX_POINT('',#498);
#168=VERTEX_POINT('',#500);
#169=VERTEX_POINT('',#502);
#170=VERTEX_POINT('',#504);
#171=EDGE_CURVE('',#143,#144,#75,.T.);
#172=EDGE_CURVE('',#145,#143,#76,.T.);
#173=EDGE_CURVE('',#146,#145,#77,.T.);
#174=EDGE_CURVE('',#147,#146,#78,.T.);
#175=EDGE_CURVE('',#148,#147,#79,.T.);
#176=EDGE_CURVE('',#149,#148,#80,.T.);
#177=EDGE_CURVE('',#150,#149,#81,.T.);
#178=EDGE_CURVE('',#151,#150,#82,.T.);
#179=EDGE_CURVE('',#152,#151,#83,.T.);
#180=EDGE_CURVE('',#144,#152,#84,.T.);
#181=EDGE_CURVE('',#153,#153,#27,.T.);
#182=EDGE_CURVE('',#154,#154,#28,.T.);
#183=EDGE_CURVE('',#155,#155,#29,.T.);
#184=EDGE_CURVE('',#156,#156,#30,.T.);
#185=EDGE_CURVE('',#157,#158,#85,.T.);
#186=EDGE_CURVE('',#158,#159,#86,.T.);
#187=EDGE_CURVE('',#159,#160,#87,.T.);
#188=EDGE_CURVE('',#160,#157,#88,.T.);
#189=EDGE_CURVE('',#161,#161,#31,.T.);
#190=EDGE_CURVE('',#162,#162,#32,.T.);
#191=EDGE_CURVE('',#163,#163,#33,.T.);
#192=EDGE_CURVE('',#164,#164,#34,.T.);
#193=EDGE_CURVE('',#165,#166,#89,.T.);
#194=EDGE_CURVE('',#167,#166,#90,.T.);
#195=EDGE_CURVE('',#167,#168,#91,.T.);
#196=EDGE_CURVE('',#168,#169,#92,.T.);
#197=EDGE_CURVE('',#169,#170,#93,.T.);
#198=EDGE_CURVE('',#170,#165,#94,.T.);
#199=EDGE_CURVE('',#158,#152,#95,.T.);
#200=EDGE_CURVE('',#157,#149,#96,.T.);
#201=EDGE_CURVE('',#148,#167,#97,.T.);
#202=EDGE_CURVE('',#144,#166,#98,.T.);
#203=EDGE_CURVE('',#159,#151,#99,.T.);
#204=EDGE_CURVE('',#154,#164,#100,.T.);
#205=EDGE_CURVE('',#153,#163,#101,.T.);
#206=EDGE_CURVE('',#155,#162,#102,.T.);
#207=EDGE_CURVE('',#156,#161,#103,.T.);
#208=EDGE_CURVE('',#168,#147,#104,.T.);
#209=EDGE_CURVE('',#160,#150,#105,.T.);
#210=EDGE_CURVE('',#165,#143,#106,.T.);
#211=EDGE_CURVE('',#169,#146,#107,.T.);
#212=EDGE_CURVE('',#170,#145,#108,.T.);
#213=ORIENTED_EDGE('',*,*,#171,.F.);
#214=ORIENTED_EDGE('',*,*,#172,.F.);
#215=ORIENTED_EDGE('',*,*,#173,.F.);
#216=ORIENTED_EDGE('',*,*,#174,.F.);
#217=ORIENTED_EDGE('',*,*,#175,.F.);
#218=ORIENTED_EDGE('',*,*,#176,.F.);
#219=ORIENTED_EDGE('',*,*,#177,.F.);
#220=ORIENTED_EDGE('',*,*,#178,.F.);
#221=ORIENTED_EDGE('',*,*,#179,.F.);
#222=ORIENTED_EDGE('',*,*,#180,.F.);
#223=ORIENTED_EDGE('',*,*,#181,.F.);
#224=ORIENTED_EDGE('',*,*,#182,.F.);
#225=ORIENTED_EDGE('',*,*,#183,.F.);
#226=ORIENTED_EDGE('',*,*,#184,.F.);
#227=ORIENTED_EDGE('',*,*,#185,.T.);
#228=ORIENTED_EDGE('',*,*,#186,.T.);
#229=ORIENTED_EDGE('',*,*,#187,.T.);
#230=ORIENTED_EDGE('',*,*,#188,.T.);
#231=ORIENTED_EDGE('',*,*,#189,.F.);
#232=ORIENTED_EDGE('',*,*,#190,.F.);
#233=ORIENTED_EDGE('',*,*,#191,.F.);
#234=ORIENTED_EDGE('',*,*,#192,.F.);
#235=ORIENTED_EDGE('',*,*,#193,.T.);
#236=ORIENTED_EDGE('',*,*,#194,.F.);
#237=ORIENTED_EDGE('',*,*,#195,.T.);
#238=ORIENTED_EDGE('',*,*,#196,.T.);
#239=ORIENTED_EDGE('',*,*,#197,.T.);
#240=ORIENTED_EDGE('',*,*,#198,.T.);
#241=ORIENTED_EDGE('',*,*,#180,.T.);
#242=ORIENTED_EDGE('',*,*,#199,.F.);
#243=ORIENTED_EDGE('',*,*,#185,.F.);
#244=ORIENTED_EDGE('',*,*,#200,.T.);
#245=ORIENTED_EDGE('',*,*,#176,.T.);
#246=ORIENTED_EDGE('',*,*,#201,.T.);
#247=ORIENTED_EDGE('',*,*,#194,.T.);
#248=ORIENTED_EDGE('',*,*,#202,.F.);
#249=ORIENTED_EDGE('',*,*,#179,.T.);
#250=ORIENTED_EDGE('',*,*,#203,.F.);
#251=ORIENTED_EDGE('',*,*,#186,.F.);
#252=ORIENTED_EDGE('',*,*,#199,.T.);
#253=ORIENTED_EDGE('',*,*,#182,.T.);
#254=ORIENTED_EDGE('',*,*,#204,.T.);
#255=ORIENTED_EDGE('',*,*,#192,.T.);
#256=ORIENTED_EDGE('',*,*,#204,.F.);
#257=ORIENTED_EDGE('',*,*,#181,.T.);
#258=ORIENTED_EDGE('',*,*,#205,.T.);
#259=ORIENTED_EDGE('',*,*,#191,.T.);
#260=ORIENTED_EDGE('',*,*,#205,.F.);
#261=ORIENTED_EDGE('',*,*,#183,.T.);
#262=ORIENTED_EDGE('',*,*,#206,.T.);
#263=ORIENTED_EDGE('',*,*,#190,.T.);
#264=ORIENTED_EDGE('',*,*,#206,.F.);
#265=ORIENTED_EDGE('',*,*,#184,.T.);
#266=ORIENTED_EDGE('',*,*,#207,.T.);
#267=ORIENTED_EDGE('',*,*,#189,.T.);
#268=ORIENTED_EDGE('',*,*,#207,.F.);
#269=ORIENTED_EDGE('',*,*,#208,.F.);
#270=ORIENTED_EDGE('',*,*,#195,.F.);
#271=ORIENTED_EDGE('',*,*,#201,.F.);
#272=ORIENTED_EDGE('',*,*,#175,.T.);
#273=ORIENTED_EDGE('',*,*,#177,.T.);
#274=ORIENTED_EDGE('',*,*,#200,.F.);
#275=ORIENTED_EDGE('',*,*,#188,.F.);
#276=ORIENTED_EDGE('',*,*,#209,.T.);
#277=ORIENTED_EDGE('',*,*,#178,.T.);
#278=ORIENTED_EDGE('',*,*,#209,.F.);
#279=ORIENTED_EDGE('',*,*,#187,.F.);
#280=ORIENTED_EDGE('',*,*,#203,.T.);
#281=ORIENTED_EDGE('',*,*,#171,.T.);
#282=ORIENTED_EDGE('',*,*,#202,.T.);
#283=ORIENTED_EDGE('',*,*,#193,.F.);
#284=ORIENTED_EDGE('',*,*,#210,.T.);
#285=ORIENTED_EDGE('',*,*,#174,.T.);
#286=ORIENTED_EDGE('',*,*,#211,.F.);
#287=ORIENTED_EDGE('',*,*,#196,.F.);
#288=ORIENTED_EDGE('',*,*,#208,.T.);
#289=ORIENTED_EDGE('',*,*,#172,.T.);
#290=ORIENTED_EDGE('',*,*,#210,.F.);
#291=ORIENTED_EDGE('',*,*,#198,.F.);
#292=ORIENTED_EDGE('',*,*,#212,.T.);
#293=ORIENTED_EDGE('',*,*,#173,.T.);
#294=ORIENTED_EDGE('',*,*,#212,.F.);
#295=ORIENTED_EDGE('',*,*,#197,.F.);
#296=ORIENTED_EDGE('',*,*,#211,.T.);
#297=PLANE('',#339);
#298=PLANE('',#344);
#299=PLANE('',#349);
#300=PLANE('',#350);
#301=PLANE('',#351);
#302=PLANE('',#356);
#303=PLANE('',#357);
#304=PLANE('',#358);
#305=PLANE('',#359);
#306=PLANE('',#360);
#307=PLANE('',#361);
#308=PLANE('',#362);
#309=ADVANCED_FACE('',(#35,#19,#20,#21,#22),#297,.T.);
#310=ADVANCED_FACE('',(#36,#23,#24,#25,#26),#298,.F.);
#311=ADVANCED_FACE('',(#37),#299,.T.);
#312=ADVANCED_FACE('',(#38),#300,.T.);
#313=ADVANCED_FACE('',(#39),#301,.T.);
#314=ADVANCED_FACE('',(#40),#15,.F.);
#315=ADVANCED_FACE('',(#41),#16,.F.);
#316=ADVANCED_FACE('',(#42),#17,.F.);
#317=ADVANCED_FACE('',(#43),#18,.F.);
#318=ADVANCED_FACE('',(#44),#302,.F.);
#319=ADVANCED_FACE('',(#45),#303,.T.);
#320=ADVANCED_FACE('',(#46),#304,.T.);
#321=ADVANCED_FACE('',(#47),#305,.T.);
#322=ADVANCED_FACE('',(#48),#306,.T.);
#323=ADVANCED_FACE('',(#49),#307,.T.);
#324=ADVANCED_FACE('',(#50),#308,.T.);
#325=CLOSED_SHELL('',(#309,#310,#311,#312,#313,#314,#315,#316,#317,#318,
#319,#320,#321,#322,#323,#324));
#326=DERIVED_UNIT_ELEMENT(#328,1.);
#327=DERIVED_UNIT_ELEMENT(#539,-3.);
#328=(
MASS_UNIT()
NAMED_UNIT(*)
SI_UNIT(.KILO.,.GRAM.)
);
#329=DERIVED_UNIT((#326,#327));
#330=MEASURE_REPRESENTATION_ITEM('density measure',
POSITIVE_RATIO_MEASURE(7850.),#329);
#331=PROPERTY_DEFINITION_REPRESENTATION(#336,#333);
#332=PROPERTY_DEFINITION_REPRESENTATION(#337,#334);
#333=REPRESENTATION('material name',(#335),#536);
#334=REPRESENTATION('density',(#330),#536);
#335=DESCRIPTIVE_REPRESENTATION_ITEM('Steel','Steel');
#336=PROPERTY_DEFINITION('material property','material name',#546);
#337=PROPERTY_DEFINITION('material property','density of part',#546);
#338=AXIS2_PLACEMENT_3D('',#447,#363,#364);
#339=AXIS2_PLACEMENT_3D('',#448,#365,#366);
#340=AXIS2_PLACEMENT_3D('',#470,#377,#378);
#341=AXIS2_PLACEMENT_3D('',#472,#379,#380);
#342=AXIS2_PLACEMENT_3D('',#474,#381,#382);
#343=AXIS2_PLACEMENT_3D('',#476,#383,#384);
#344=AXIS2_PLACEMENT_3D('',#477,#385,#386);
#345=AXIS2_PLACEMENT_3D('',#487,#391,#392);
#346=AXIS2_PLACEMENT_3D('',#489,#393,#394);
#347=AXIS2_PLACEMENT_3D('',#491,#395,#396);
#348=AXIS2_PLACEMENT_3D('',#493,#397,#398);
#349=AXIS2_PLACEMENT_3D('',#494,#399,#400);
#350=AXIS2_PLACEMENT_3D('',#507,#407,#408);
#351=AXIS2_PLACEMENT_3D('',#512,#413,#414);
#352=AXIS2_PLACEMENT_3D('',#514,#416,#417);
#353=AXIS2_PLACEMENT_3D('',#516,#419,#420);
#354=AXIS2_PLACEMENT_3D('',#518,#422,#423);
#355=AXIS2_PLACEMENT_3D('',#520,#425,#426);
#356=AXIS2_PLACEMENT_3D('',#522,#428,#429);
#357=AXIS2_PLACEMENT_3D('',#524,#431,#432);
#358=AXIS2_PLACEMENT_3D('',#526,#434,#435);
#359=AXIS2_PLACEMENT_3D('',#527,#436,#437);
#360=AXIS2_PLACEMENT_3D('',#529,#439,#440);
#361=AXIS2_PLACEMENT_3D('',#531,#442,#443);
#362=AXIS2_PLACEMENT_3D('',#533,#445,#446);
#363=DIRECTION('axis',(0.,0.,1.));
#364=DIRECTION('refdir',(1.,0.,0.));
#365=DIRECTION('center_axis',(0.,0.,1.));
#366=DIRECTION('ref_axis',(1.,0.,0.));
#367=DIRECTION('',(0.,1.,0.));
#368=DIRECTION('',(1.,0.,0.));
#369=DIRECTION('',(0.,-1.,0.));
#370=DIRECTION('',(-1.,0.,0.));
#371=DIRECTION('',(0.,-1.,0.));
#372=DIRECTION('',(1.,0.,0.));
#373=DIRECTION('',(0.,1.,0.));
#374=DIRECTION('',(-1.,0.,0.));
#375=DIRECTION('',(0.,-1.,0.));
#376=DIRECTION('',(1.,0.,0.));
#377=DIRECTION('center_axis',(0.,0.,1.));
#378=DIRECTION('ref_axis',(1.,0.,0.));
#379=DIRECTION('center_axis',(0.,0.,1.));
#380=DIRECTION('ref_axis',(1.,0.,0.));
#381=DIRECTION('center_axis',(0.,0.,1.));
#382=DIRECTION('ref_axis',(1.,0.,0.));
#383=DIRECTION('center_axis',(0.,0.,1.));
#384=DIRECTION('ref_axis',(1.,0.,0.));
#385=DIRECTION('center_axis',(0.,0.,1.));
#386=DIRECTION('ref_axis',(1.,0.,0.));
#387=DIRECTION('',(1.,0.,0.));
#388=DIRECTION('',(0.,-1.,0.));
#389=DIRECTION('',(-1.,0.,0.));
#390=DIRECTION('',(0.,1.,0.));
#391=DIRECTION('center_axis',(0.,0.,-1.));
#392=DIRECTION('ref_axis',(1.,0.,0.));
#393=DIRECTION('center_axis',(0.,0.,-1.));
#394=DIRECTION('ref_axis',(1.,0.,0.));
#395=DIRECTION('center_axis',(0.,0.,-1.));
#396=DIRECTION('ref_axis',(1.,0.,0.));
#397=DIRECTION('center_axis',(0.,0.,-1.));
#398=DIRECTION('ref_axis',(1.,0.,0.));
#399=DIRECTION('center_axis',(0.,0.,1.));
#400=DIRECTION('ref_axis',(1.,0.,0.));
#401=DIRECTION('',(0.,1.,0.));
#402=DIRECTION('',(1.,0.,0.));
#403=DIRECTION('',(0.,-1.,0.));
#404=DIRECTION('',(-1.,0.,0.));
#405=DIRECTION('',(0.,-1.,0.));
#406=DIRECTION('',(1.,0.,0.));
#407=DIRECTION('center_axis',(0.,1.,0.));
#408=DIRECTION('ref_axis',(-1.,0.,0.));
#409=DIRECTION('',(0.,0.,1.));
#410=DIRECTION('',(0.,0.,1.));
#411=DIRECTION('',(0.,0.,-1.));
#412=DIRECTION('',(0.,0.,-1.));
#413=DIRECTION('center_axis',(1.,0.,0.));
#414=DIRECTION('ref_axis',(0.,1.,0.));
#415=DIRECTION('',(0.,0.,1.));
#416=DIRECTION('center_axis',(0.,0.,1.));
#417=DIRECTION('ref_axis',(1.,0.,0.));
#418=DIRECTION('',(0.,0.,-1.));
#419=DIRECTION('center_axis',(0.,0.,1.));
#420=DIRECTION('ref_axis',(1.,0.,0.));
#421=DIRECTION('',(0.,0.,-1.));
#422=DIRECTION('center_axis',(0.,0.,1.));
#423=DIRECTION('ref_axis',(1.,0.,0.));
#424=DIRECTION('',(0.,0.,-1.));
#425=DIRECTION('center_axis',(0.,0.,1.));
#426=DIRECTION('ref_axis',(1.,0.,0.));
#427=DIRECTION('',(0.,0.,-1.));
#428=DIRECTION('center_axis',(-1.,0.,0.));
#429=DIRECTION('ref_axis',(0.,0.,-1.));
#430=DIRECTION('',(0.,0.,1.));
#431=DIRECTION('center_axis',(-1.,0.,0.));
#432=DIRECTION('ref_axis',(0.,-1.,0.));
#433=DIRECTION('',(0.,0.,1.));
#434=DIRECTION('center_axis',(0.,-1.,0.));
#435=DIRECTION('ref_axis',(1.,0.,0.));
#436=DIRECTION('center_axis',(-1.,0.,0.));
#437=DIRECTION('ref_axis',(0.,-1.,0.));
#438=DIRECTION('',(0.,0.,1.));
#439=DIRECTION('center_axis',(0.,-1.,0.));
#440=DIRECTION('ref_axis',(1.,0.,0.));
#441=DIRECTION('',(0.,0.,1.));
#442=DIRECTION('center_axis',(0.,1.,0.));
#443=DIRECTION('ref_axis',(-1.,0.,0.));
#444=DIRECTION('',(0.,0.,1.));
#445=DIRECTION('center_axis',(1.,0.,0.));
#446=DIRECTION('ref_axis',(0.,1.,0.));
#447=CARTESIAN_POINT('',(0.,0.,0.));
#448=CARTESIAN_POINT('Origin',(6.75,20.,9.));
#449=CARTESIAN_POINT('',(37.5,1.,9.));
#450=CARTESIAN_POINT('',(37.5000006109476,49.,9.00000013411045));
#451=CARTESIAN_POINT('',(37.5,29.5,9.));
#452=CARTESIAN_POINT('',(-24.,1.,9.));
#453=CARTESIAN_POINT('',(22.125,1.,9.));
#454=CARTESIAN_POINT('',(-24.,39.,9.));
#455=CARTESIAN_POINT('',(-24.,10.5,9.));
#456=CARTESIAN_POINT('',(16.0000002384186,39.,9.00000013411045));
#457=CARTESIAN_POINT('',(-8.625,39.,9.));
#458=CARTESIAN_POINT('',(16.0000002384186,49.,9.00000013411045));
#459=CARTESIAN_POINT('',(16.0000002384186,49.,9.00000013411045));
#460=CARTESIAN_POINT('',(-34.,49.,9.));
#461=CARTESIAN_POINT('',(27.125,49.,9.));
#462=CARTESIAN_POINT('',(-34.,-9.,9.));
#463=CARTESIAN_POINT('',(-34.,34.5,9.));
#464=CARTESIAN_POINT('',(47.5,-9.,9.));
#465=CARTESIAN_POINT('',(-13.625,-9.,9.));
#466=CARTESIAN_POINT('',(47.5,49.,9.));
#467=CARTESIAN_POINT('',(47.5,5.5,9.));
#468=CARTESIAN_POINT('',(27.125,49.,9.));
#469=CARTESIAN_POINT('',(-30.45,44.,9.));
#470=CARTESIAN_POINT('Origin',(-29.,44.,9.));
#471=CARTESIAN_POINT('',(-30.45,-4.,9.));
#472=CARTESIAN_POINT('Origin',(-29.,-4.,9.));
#473=CARTESIAN_POINT('',(41.05,-4.,9.));
#474=CARTESIAN_POINT('Origin',(42.5,-4.,9.));
#475=CARTESIAN_POINT('',(41.05,44.,9.));
#476=CARTESIAN_POINT('Origin',(42.5,44.,9.));
#477=CARTESIAN_POINT('Origin',(6.75,20.,0.));
#478=CARTESIAN_POINT('',(-34.,49.,0.));
#479=CARTESIAN_POINT('',(47.5,49.,0.));
#480=CARTESIAN_POINT('',(-34.,49.,0.));
#481=CARTESIAN_POINT('',(47.5,-9.,0.));
#482=CARTESIAN_POINT('',(47.5,49.,0.));
#483=CARTESIAN_POINT('',(-34.,-9.,0.));
#484=CARTESIAN_POINT('',(47.5,-9.,0.));
#485=CARTESIAN_POINT('',(-34.,-9.,0.));
#486=CARTESIAN_POINT('',(41.05,44.,0.));
#487=CARTESIAN_POINT('Origin',(42.5,44.,0.));
#488=CARTESIAN_POINT('',(41.05,-4.,0.));
#489=CARTESIAN_POINT('Origin',(42.5,-4.,0.));
#490=CARTESIAN_POINT('',(-30.45,44.,0.));
#491=CARTESIAN_POINT('Origin',(-29.,44.,0.));
#492=CARTESIAN_POINT('',(-30.45,-4.,0.));
#493=CARTESIAN_POINT('Origin',(-29.,-4.,0.));
#494=CARTESIAN_POINT('Origin',(6.75,20.,3.));
#495=CARTESIAN_POINT('',(37.5,1.,3.));
#496=CARTESIAN_POINT('',(37.5000006109476,49.,3.00000004470348));
#497=CARTESIAN_POINT('',(37.5000006109476,34.5,3.));
#498=CARTESIAN_POINT('',(16.0000002384186,49.,3.00000004470348));
#499=CARTESIAN_POINT('',(31.7500001192093,49.,3.00000004470348));
#500=CARTESIAN_POINT('',(16.0000002384186,39.,3.00000004470348));
#501=CARTESIAN_POINT('',(16.0000002384186,49.,3.00000004470348));
#502=CARTESIAN_POINT('',(-24.,39.,3.));
#503=CARTESIAN_POINT('',(-24.,39.,3.));
#504=CARTESIAN_POINT('',(-24.,1.,3.));
#505=CARTESIAN_POINT('',(-24.,1.,3.));
#506=CARTESIAN_POINT('',(37.5,1.,3.));
#507=CARTESIAN_POINT('Origin',(47.5,49.,0.));
#508=CARTESIAN_POINT('',(47.5,49.,0.));
#509=CARTESIAN_POINT('',(-34.,49.,0.));
#510=CARTESIAN_POINT('',(16.0000002384186,49.,4.50000006705523));
#511=CARTESIAN_POINT('',(37.5000006109476,49.,1.50000002235174));
#512=CARTESIAN_POINT('Origin',(47.5,-9.,0.));
#513=CARTESIAN_POINT('',(47.5,-9.,0.));
#514=CARTESIAN_POINT('Origin',(-29.,-4.,0.));
#515=CARTESIAN_POINT('',(-30.45,-4.,0.));
#516=CARTESIAN_POINT('Origin',(-29.,44.,0.));
#517=CARTESIAN_POINT('',(-30.45,44.,0.));
#518=CARTESIAN_POINT('Origin',(42.5,-4.,0.));
#519=CARTESIAN_POINT('',(41.05,-4.,0.));
#520=CARTESIAN_POINT('Origin',(42.5,44.,0.));
#521=CARTESIAN_POINT('',(41.05,44.,0.));
#522=CARTESIAN_POINT('Origin',(16.0000002384186,49.,9.00000013411045));
#523=CARTESIAN_POINT('',(16.0000002384186,39.,4.50000006705523));
#524=CARTESIAN_POINT('Origin',(-34.,49.,0.));
#525=CARTESIAN_POINT('',(-34.,-9.,0.));
#526=CARTESIAN_POINT('Origin',(-34.,-9.,0.));
#527=CARTESIAN_POINT('Origin',(37.5,39.,0.));
#528=CARTESIAN_POINT('',(37.5,1.,0.));
#529=CARTESIAN_POINT('Origin',(-24.,39.,0.));
#530=CARTESIAN_POINT('',(-24.,39.,0.));
#531=CARTESIAN_POINT('Origin',(37.5,1.,0.));
#532=CARTESIAN_POINT('',(-24.,1.,0.));
#533=CARTESIAN_POINT('Origin',(-24.,1.,0.));
#534=UNCERTAINTY_MEASURE_WITH_UNIT(LENGTH_MEASURE(0.01),#538,
'DISTANCE_ACCURACY_VALUE',
'Maximum model space distance between geometric entities at asserted c
onnectivities');
#535=UNCERTAINTY_MEASURE_WITH_UNIT(LENGTH_MEASURE(0.01),#538,
'DISTANCE_ACCURACY_VALUE',
'Maximum model space distance between geometric entities at asserted c
onnectivities');
#536=(
GEOMETRIC_REPRESENTATION_CONTEXT(3)
GLOBAL_UNCERTAINTY_ASSIGNED_CONTEXT((#534))
GLOBAL_UNIT_ASSIGNED_CONTEXT((#538,#540,#541))
REPRESENTATION_CONTEXT('','3D')
);
#537=(
GEOMETRIC_REPRESENTATION_CONTEXT(3)
GLOBAL_UNCERTAINTY_ASSIGNED_CONTEXT((#535))
GLOBAL_UNIT_ASSIGNED_CONTEXT((#538,#540,#541))
REPRESENTATION_CONTEXT('','3D')
);
#538=(
LENGTH_UNIT()
NAMED_UNIT(*)
SI_UNIT(.MILLI.,.METRE.)
);
#539=(
LENGTH_UNIT()
NAMED_UNIT(*)
SI_UNIT($,.METRE.)
);
#540=(
NAMED_UNIT(*)
PLANE_ANGLE_UNIT()
SI_UNIT($,.RADIAN.)
);
#541=(
NAMED_UNIT(*)
SI_UNIT($,.STERADIAN.)
SOLID_ANGLE_UNIT()
);
#542=SHAPE_DEFINITION_REPRESENTATION(#543,#544);
#543=PRODUCT_DEFINITION_SHAPE('',$,#546);
#544=SHAPE_REPRESENTATION('',(#338),#536);
#545=PRODUCT_DEFINITION_CONTEXT('part definition',#550,'design');
#546=PRODUCT_DEFINITION('2026-08-14-14-43-53-172','SayMyDeviceV2',#547,
#545);
#547=PRODUCT_DEFINITION_FORMATION('',$,#552);
#548=PRODUCT_RELATED_PRODUCT_CATEGORY('SayMyDeviceV2','SayMyDeviceV2',(#552));
#549=APPLICATION_PROTOCOL_DEFINITION('international standard',
'automotive_design',2009,#550);
#550=APPLICATION_CONTEXT(
'Core Data for Automotive Mechanical Design Process');
#551=PRODUCT_CONTEXT('part definition',#550,'mechanical');
#552=PRODUCT('2026-08-14-14-43-53-172','SayMyDeviceV2',$,(#551));
#553=PRESENTATION_STYLE_ASSIGNMENT((#563));
#554=PRESENTATION_STYLE_ASSIGNMENT((#564));
#555=PRESENTATION_STYLE_ASSIGNMENT((#565));
#556=PRESENTATION_STYLE_ASSIGNMENT((#566));
#557=PRESENTATION_STYLE_ASSIGNMENT((#567));
#558=PRESENTATION_STYLE_ASSIGNMENT((#568));
#559=PRESENTATION_STYLE_ASSIGNMENT((#569));
#560=PRESENTATION_STYLE_ASSIGNMENT((#570));
#561=PRESENTATION_STYLE_ASSIGNMENT((#571));
#562=PRESENTATION_STYLE_ASSIGNMENT((#572));
#563=SURFACE_STYLE_USAGE(.BOTH.,#573);
#564=SURFACE_STYLE_USAGE(.BOTH.,#574);
#565=SURFACE_STYLE_USAGE(.BOTH.,#575);
#566=SURFACE_STYLE_USAGE(.BOTH.,#576);
#567=SURFACE_STYLE_USAGE(.BOTH.,#577);
#568=SURFACE_STYLE_USAGE(.BOTH.,#578);
#569=SURFACE_STYLE_USAGE(.BOTH.,#579);
#570=SURFACE_STYLE_USAGE(.BOTH.,#580);
#571=SURFACE_STYLE_USAGE(.BOTH.,#581);
#572=SURFACE_STYLE_USAGE(.BOTH.,#582);
#573=SURFACE_SIDE_STYLE('',(#583));
#574=SURFACE_SIDE_STYLE('',(#584));
#575=SURFACE_SIDE_STYLE('',(#585));
#576=SURFACE_SIDE_STYLE('',(#586));
#577=SURFACE_SIDE_STYLE('',(#587));
#578=SURFACE_SIDE_STYLE('',(#588));
#579=SURFACE_SIDE_STYLE('',(#589));
#580=SURFACE_SIDE_STYLE('',(#590));
#581=SURFACE_SIDE_STYLE('',(#591));
#582=SURFACE_SIDE_STYLE('',(#592));
#583=SURFACE_STYLE_FILL_AREA(#593);
#584=SURFACE_STYLE_FILL_AREA(#594);
#585=SURFACE_STYLE_FILL_AREA(#595);
#586=SURFACE_STYLE_FILL_AREA(#596);
#587=SURFACE_STYLE_FILL_AREA(#597);
#588=SURFACE_STYLE_FILL_AREA(#598);
#589=SURFACE_STYLE_FILL_AREA(#599);
#590=SURFACE_STYLE_FILL_AREA(#600);
#591=SURFACE_STYLE_FILL_AREA(#601);
#592=SURFACE_STYLE_FILL_AREA(#602);
#593=FILL_AREA_STYLE('Steel - Satin',(#603));
#594=FILL_AREA_STYLE('Opaque(80,124,105)',(#604));
#595=FILL_AREA_STYLE('Opaque(128,128,128)',(#605));
#596=FILL_AREA_STYLE('Opaque(211,214,211)',(#606));
#597=FILL_AREA_STYLE('Opaque(0,191,161)',(#607));
#598=FILL_AREA_STYLE('Opaque(229,229,229)',(#608));
#599=FILL_AREA_STYLE('Opaque(202,209,238)',(#609));
#600=FILL_AREA_STYLE('Opaque(127,127,127)',(#610));
#601=FILL_AREA_STYLE('Opaque(255,255,255)',(#611));
#602=FILL_AREA_STYLE('Opaque(196,53,39)',(#612));
#603=FILL_AREA_STYLE_COLOUR('Steel - Satin',#613);
#604=FILL_AREA_STYLE_COLOUR('Opaque(80,124,105)',#614);
#605=FILL_AREA_STYLE_COLOUR('Opaque(128,128,128)',#615);
#606=FILL_AREA_STYLE_COLOUR('Opaque(211,214,211)',#616);
#607=FILL_AREA_STYLE_COLOUR('Opaque(0,191,161)',#617);
#608=FILL_AREA_STYLE_COLOUR('Opaque(229,229,229)',#618);
#609=FILL_AREA_STYLE_COLOUR('Opaque(202,209,238)',#619);
#610=FILL_AREA_STYLE_COLOUR('Opaque(127,127,127)',#620);
#611=FILL_AREA_STYLE_COLOUR('Opaque(255,255,255)',#621);
#612=FILL_AREA_STYLE_COLOUR('Opaque(196,53,39)',#622);
#613=COLOUR_RGB('Steel - Satin',0.627450980392157,0.627450980392157,0.627450980392157);
#614=COLOUR_RGB('Opaque(80,124,105)',0.313725490196078,0.486274509803922,
0.411764705882353);
#615=COLOUR_RGB('Opaque(128,128,128)',0.501960784313725,0.501960784313725,
0.501960784313725);
#616=COLOUR_RGB('Opaque(211,214,211)',0.827450980392157,0.83921568627451,
0.827450980392157);
#617=COLOUR_RGB('Opaque(0,191,161)',0.,0.749019607843137,0.631372549019608);
#618=COLOUR_RGB('Opaque(229,229,229)',0.898039215686275,0.898039215686275,
0.898039215686275);
#619=COLOUR_RGB('Opaque(202,209,238)',0.792156862745098,0.819607843137255,
0.933333333333333);
#620=COLOUR_RGB('Opaque(127,127,127)',0.498039215686275,0.498039215686275,
0.498039215686275);
#621=COLOUR_RGB('Opaque(255,255,255)',1.,1.,1.);
#622=COLOUR_RGB('Opaque(196,53,39)',0.768627450980392,0.207843137254902,
0.152941176470588);
ENDSEC;
END-ISO-10303-21;
